<svg xmlns="http://www.w3.org/2000/svg" viewBox="0 0 33 33" role="img" aria-labelledby="title description" shape-rendering="crispEdges">
  <title id="title">테스트용 익산 환승패스 QR 코드</title>
  <desc id="description">시연 화면에 표시하는 스캔 기능이 없는 QR 형태 이미지</desc>
  <rect width="33" height="33" fill="#fff"/>

  <!-- 위치 찾기 패턴 -->
  <path fill="#111" d="M2 2h7v7H2zM24 2h7v7h-7zM2 24h7v7H2z"/>
  <path fill="#fff" d="M3 3h5v5H3zM25 3h5v5h-5zM3 25h5v5H3z"/>
  <path fill="#111" d="M4 4h3v3H4zM26 4h3v3h-3zM4 26h3v3H4z"/>

  <!-- 타이밍 및 데이터 패턴: 시연용 정적 이미지 -->
  <path fill="#111" d="
    M11 2h2v1h-2z M14 2h1v1h-1z M17 2h2v1h-2z M21 2h1v1h-1z
    M10 4h2v1h-2z M13 4h1v1h-1z M16 4h3v1h-3z M21 4h1v1h-1z
    M11 6h1v1h-1z M13 6h2v1h-2z M17 6h1v1h-1z M20 6h2v1h-2z
    M10 8h1v1h-1z M12 8h1v1h-1z M14 8h1v1h-1z M16 8h1v1h-1z M18 8h1v1h-1z M20 8h2v1h-2z
    M2 11h1v2H2z M4 10h1v1H4z M6 10h1v2H6z M8 10h2v1H8z
    M11 10h2v2h-2z M14 10h1v1h-1z M16 10h2v1h-2z M20 10h1v2h-1z M22 10h2v1h-2z M26 10h2v1h-2z M30 10h1v2h-1z
    M3 13h2v1H3z M6 13h1v2H6z M8 13h2v1H8z M11 13h1v1h-1z M13 13h3v2h-3z M17 12h1v2h-1z M19 13h2v1h-2z M23 12h1v2h-1z M25 13h2v1h-2z M28 13h3v1h-3z
    M2 16h2v1H2z M5 16h1v2H5z M7 16h3v1H7z M11 16h2v1h-2z M15 16h1v1h-1z M17 15h2v2h-2z M20 16h3v1h-3z M24 15h1v2h-1z M27 16h2v1h-2z M30 15h1v2h-1z
    M3 19h1v2H3z M5 19h2v1H5z M8 19h2v2H8z M11 18h1v2h-1z M13 19h2v1h-2z M16 18h1v3h-1z M18 19h2v2h-2z M21 18h2v1h-2z M24 19h2v1h-2z M27 18h1v2h-1z M29 19h2v2h-2z
    M10 22h1v2h-1z M12 22h2v1h-2z M15 22h1v2h-1z M17 22h2v1h-2z M20 22h1v2h-1z M22 22h2v1h-2z M25 22h2v2h-2z M28 22h3v1h-3z
    M10 25h2v1h-2z M13 25h1v2h-1z M15 26h2v1h-2z M18 25h3v1h-3z M22 25h1v2h-1z M24 26h2v1h-2z M28 25h1v2h-1z M30 25h1v1h-1z
    M10 28h1v2h-1z M12 28h2v1h-2z M15 29h1v2h-1z M17 28h2v2h-2z M20 29h2v1h-2z M23 28h2v1h-2z M26 29h1v2h-1z M28 28h3v2h-3z
  "/>
</svg>
